<svg width="45" height="47" viewBox="0 0 45 47" fill="none" xmlns="http://www.w3.org/2000/svg">
<path d="M12.5666 38.3496V36.8975C12.5666 36.5539 12.4265 36.239 12.205 36.0126C11.9808 35.7836 11.6727 35.6432 11.3366 35.6432H7.67255C7.33394 35.6432 7.02829 35.7837 6.80429 36.0126C6.5802 36.239 6.44269 36.554 6.44269 36.8975V38.3496H12.5666ZM23.1235 3.55771C23.7702 3.55771 24.3533 3.82576 24.7786 4.26032C25.2012 4.69232 25.4635 5.28827 25.4635 5.9493C25.4635 6.61033 25.2012 7.20627 24.7786 7.64093C24.3533 8.07293 23.7702 8.34098 23.1235 8.34098C22.4793 8.34098 21.8936 8.07293 21.471 7.64093C21.0458 7.20637 20.786 6.61033 20.786 5.9493C20.786 5.28827 21.0458 4.69232 21.471 4.26032C21.8936 3.82576 22.4793 3.55771 23.1235 3.55771ZM23.8262 5.23365C23.6454 5.04886 23.3984 4.93696 23.1235 4.93696C22.8511 4.93696 22.6015 5.04886 22.4232 5.23365C22.2424 5.41587 22.133 5.67088 22.133 5.9493C22.133 6.23038 22.2425 6.48282 22.4232 6.66761C22.6015 6.84983 22.8511 6.9643 23.1235 6.9643C23.3984 6.9643 23.6454 6.84983 23.8262 6.66761C24.0045 6.48282 24.1165 6.23038 24.1165 5.9493C24.1165 5.67088 24.0045 5.41587 23.8262 5.23365ZM13.9136 38.3496H18.7158V36.8975C18.7158 36.174 19.0036 35.5156 19.4721 35.0367C19.7853 34.7166 20.1775 34.4798 20.618 34.3575V29.3036C20.618 28.9236 20.9209 28.6139 21.2927 28.6139C21.6644 28.6139 21.9649 28.9236 21.9649 29.3036V34.2638H24.282V21.223H21.9649V26.1833C21.9649 26.5658 21.6644 26.873 21.2927 26.873C20.9209 26.873 20.618 26.5658 20.618 26.1833V21.132C20.1775 21.0097 19.7853 20.7703 19.4721 20.4501C19.0061 19.9739 18.7158 19.3155 18.7158 18.5894V17.1372H13.9136V18.5894C13.9136 19.3155 13.6233 19.974 13.1573 20.4501C12.844 20.7702 12.4494 21.0096 12.0089 21.132V34.3575C12.4494 34.4798 12.844 34.7166 13.1573 35.0367C13.6233 35.5156 13.9136 36.174 13.9136 36.8975V38.3496ZM27.5337 38.3496H31.8216V36.8975C31.8216 36.174 32.1119 35.5156 32.5779 35.0367C32.8911 34.7166 33.2858 34.4798 33.7263 34.3575V25.4363C33.7263 25.0564 34.0267 24.7467 34.3985 24.7467C34.7702 24.7467 35.0733 25.0563 35.0733 25.4363V34.2638H37.3905V21.223H35.0733V22.3161C35.0733 22.696 34.7702 23.0057 34.3985 23.0057C34.0267 23.0057 33.7263 22.696 33.7263 22.3161V21.1319C33.2858 21.0096 32.8936 20.7702 32.5779 20.45C32.1119 19.9738 31.8216 19.3154 31.8216 18.5893V17.1371H27.5337V18.5893C27.5337 19.3154 27.2435 19.9739 26.7774 20.45C26.4617 20.7701 26.0696 21.0095 25.629 21.1319V34.3574C26.0696 34.4797 26.4616 34.7166 26.7774 35.0366C27.2434 35.5155 27.5337 36.1739 27.5337 36.8974V38.3496ZM40.6395 38.4354C41.1208 38.5629 41.5486 38.818 41.8898 39.1667C42.3838 39.6716 42.6892 40.3664 42.6892 41.1315V42.0736C43.1705 42.2011 43.5983 42.4562 43.9394 42.8049C44.4335 43.3098 44.7389 44.0046 44.7389 44.7724V46.3156C44.7389 46.7189 44.4002 47 44.0056 47H1.67089C1.29914 47 0.996094 46.6928 0.996094 46.3156V44.7724C0.996094 44.0047 1.30165 43.3098 1.79555 42.8049C2.13677 42.4561 2.56448 42.2011 3.04581 42.0736V41.1315C3.04581 40.3664 3.35136 39.6716 3.84536 39.1667C4.18648 38.818 4.61437 38.5629 5.09552 38.4354V36.8975C5.09552 36.174 5.38581 35.5156 5.85178 35.0367C6.16497 34.7166 6.55963 34.4798 6.99758 34.3575V33.1708C6.99758 32.7908 7.30062 32.4811 7.67237 32.4811C8.04412 32.4811 8.34456 32.7908 8.34456 33.1708V34.2638H10.6617V21.223H8.34474V30.0531C8.34474 30.433 8.0443 30.7401 7.67255 30.7401C7.3008 30.7401 6.99776 30.433 6.99776 30.0531V21.1319C6.55981 21.0096 6.16506 20.7702 5.85196 20.45C5.38599 19.9738 5.0957 19.3154 5.0957 18.5893V17.1371H4.74425C3.78428 17.1371 2.9109 16.7364 2.27688 16.091C1.64547 15.443 1.25333 14.5504 1.25333 13.5693C1.25333 12.5881 1.64547 11.6955 2.27688 11.0475C2.87022 10.4412 3.6748 10.0508 4.56605 10.0039L21.3182 0.518036C21.8732 0.164067 22.5174 -0.00511473 23.154 0.000117695C23.7983 0.00535012 24.4399 0.187567 24.9721 0.536304L41.681 10.0039C42.5721 10.0507 43.3767 10.4411 43.97 11.0475C44.6014 11.6955 44.9961 12.5881 44.9961 13.5693C44.9961 14.5504 44.6014 15.443 43.97 16.091C43.3385 16.7365 42.4651 17.1371 41.5027 17.1371H40.6395V18.5893C40.6395 19.3154 40.3492 19.9739 39.8833 20.45C39.57 20.7701 39.1753 21.0095 38.7375 21.1319V34.3574C39.1753 34.4797 39.5701 34.7166 39.8833 35.0366C40.3492 35.5155 40.6395 36.1739 40.6395 36.8974V38.4354ZM5.76789 39.7263C5.39102 39.7263 5.04738 39.885 4.79778 40.1401C4.54827 40.3951 4.39297 40.7464 4.39297 41.1316V41.9878H41.3422V41.1316C41.3422 40.7464 41.187 40.3951 40.9374 40.1401C40.6878 39.8851 40.3442 39.7263 39.9673 39.7263C28.5675 39.7263 17.1677 39.7263 5.76789 39.7263ZM42.017 43.3645H3.72069C3.34131 43.3645 2.99749 43.5232 2.74797 43.7782C2.49846 44.0332 2.34317 44.3846 2.34317 44.7724V45.6286H43.3921V44.7724C43.3921 44.3846 43.2367 44.0332 42.9872 43.7782C42.7376 43.5232 42.3938 43.3645 42.017 43.3645ZM39.2925 17.1371H33.1686V18.5893C33.1686 18.9328 33.3088 19.2477 33.5328 19.4767C33.7542 19.7032 34.0624 19.8463 34.3985 19.8463H38.0627C38.4013 19.8463 38.7068 19.7032 38.931 19.4767C39.155 19.2477 39.2925 18.9328 39.2925 18.5893V17.1371ZM26.1842 17.1371H20.0628V18.5893C20.0628 18.9328 20.2003 19.2477 20.4244 19.4767C20.6486 19.7032 20.9541 19.8463 21.2927 19.8463H24.9568C25.2929 19.8463 25.6011 19.7032 25.8226 19.4767C26.0466 19.2477 26.1842 18.9328 26.1842 18.5893V17.1371ZM12.5666 17.1371H6.44269V18.5893C6.44269 18.9328 6.5802 19.2477 6.80429 19.4767C7.02829 19.7032 7.33394 19.8463 7.67255 19.8463H11.3367C11.6728 19.8463 11.9809 19.7032 12.2051 19.4767C12.4266 19.2477 12.5667 18.9328 12.5667 18.5893V17.1371H12.5666ZM39.2925 38.3496V36.8975C39.2925 36.5539 39.155 36.239 38.931 36.0126C38.7068 35.7836 38.4014 35.6432 38.0627 35.6432H34.3985C34.0624 35.6432 33.7542 35.7837 33.5328 36.0126C33.3087 36.239 33.1686 36.554 33.1686 36.8975V38.3496H39.2925ZM26.1842 38.3496V36.8975C26.1842 36.5539 26.0466 36.239 25.8226 36.0126C25.6011 35.7836 25.2928 35.6432 24.9568 35.6432H21.2927C20.9541 35.6432 20.6486 35.7837 20.4244 36.0126C20.2003 36.239 20.0628 36.554 20.0628 36.8975V38.3496H26.1842ZM41.5027 11.378H4.74425C4.15613 11.378 3.61875 11.6252 3.22921 12.0208C2.84219 12.4189 2.60032 12.9681 2.60032 13.5693C2.60032 14.1704 2.84219 14.7196 3.22921 15.1177C3.61875 15.5133 4.15613 15.7605 4.74425 15.7605H41.5027C42.0934 15.7605 42.6282 15.5133 43.0178 15.1177C43.4073 14.7196 43.6466 14.1704 43.6466 13.5693C43.6466 12.9681 43.4073 12.419 43.0178 12.0208C42.6282 11.6252 42.0934 11.378 41.5027 11.378ZM38.9028 10.0013L24.3076 1.73077C23.895 1.49393 23.6404 1.3768 23.149 1.37166C22.6983 1.36909 22.375 1.47833 21.9905 1.70736L7.34661 10.0013H38.9028Z" fill="#E8BF96"/>
</svg>
