<svg width="48" height="47" viewBox="0 0 48 47" fill="none" xmlns="http://www.w3.org/2000/svg">
<path fill-rule="evenodd" clip-rule="evenodd" d="M40.6057 5.85627L47.609 17.9877C47.9935 18.6527 48.0958 19.4282 47.8969 20.1707C47.698 20.9133 47.222 21.5337 46.5565 21.9179C46.5482 21.9227 46.5398 21.9273 46.5313 21.9317C46.0943 22.1785 45.6112 22.3044 45.1219 22.3044C44.872 22.3044 44.6206 22.2716 44.3728 22.2052C43.8913 22.0762 43.4617 21.8299 43.114 21.4915C41.5817 22.6899 40.0131 23.8188 38.4121 24.8776L45.5238 34.9615C46.38 36.1757 46.6879 37.704 46.3688 39.1547C46.0498 40.605 45.1293 41.8627 43.8432 42.6052C43.0367 43.0704 42.1226 43.3162 41.1994 43.3162C39.6765 43.3162 38.2474 42.6564 37.2558 41.5582V43.5576C37.2558 45.4558 35.7116 47 33.8135 47H5.35644C2.95219 47 0.996094 45.0439 0.996094 42.6396V14.3368C0.996094 13.9566 1.30434 13.6484 1.68457 13.6484C2.0648 13.6484 2.37305 13.9566 2.37305 14.3368V18.5581C3.37336 17.4352 4.83926 16.5001 6.5039 16.2923V1.42689C4.17162 1.76213 2.37305 3.77267 2.37305 6.19629V11.1239C2.37305 11.5042 2.0648 11.8124 1.68457 11.8124C1.30434 11.8124 0.996094 11.5042 0.996094 11.1239V6.19629C0.996094 2.77961 3.7757 0 7.19238 0H33.8135C35.7116 0 37.2558 1.54421 37.2558 3.44238V4.54991C38.5113 4.15684 39.9198 4.66989 40.6057 5.85627ZM6.5039 17.684C4.18594 18.0734 2.37305 20.3247 2.37305 21.5264V22.2257C3.37391 20.9883 4.84073 20.143 6.5039 19.9583V17.684ZM6.5039 21.3468C4.17162 21.6821 2.37305 23.6926 2.37305 26.1162V39.4621C3.18453 38.6989 4.23809 38.2793 5.35644 38.2793H6.5039V21.3468ZM33.8135 45.623C34.9524 45.623 35.8789 44.6965 35.8789 43.5576V39.6562H23.4037C23.0235 39.6562 22.7152 39.348 22.7152 38.9678C22.7152 38.5876 23.0235 38.2793 23.4037 38.2793H35.4776L31.2132 29.0514C29.4784 29.9228 27.7145 30.7169 25.9246 31.4312C26.223 32.6428 25.7039 33.9573 24.5703 34.6118C24.1184 34.8727 23.6244 34.9967 23.1367 34.9967C22.1415 34.9967 21.1725 34.4807 20.6402 33.5587L13.6366 21.4281C13.2523 20.7626 13.1503 19.9872 13.3492 19.2449C13.5481 18.5026 14.0242 17.8822 14.6897 17.498C15.3552 17.1137 16.1307 17.0116 16.8729 17.2105C17.3507 17.3386 17.7775 17.582 18.1238 17.9163C23.2593 13.8687 29.0381 10.5345 35.3236 7.99918C35.2042 7.52835 35.2057 7.03265 35.3347 6.5509C35.4411 6.15388 35.6274 5.79238 35.8789 5.48266V3.44238C35.8789 2.30346 34.9524 1.37695 33.8135 1.37695H7.88086V38.2793H20.1908C20.571 38.2793 20.8793 38.5876 20.8793 38.9678C20.8793 39.348 20.571 39.6562 20.1908 39.6562H5.35644C4.56001 39.6562 3.81096 39.9666 3.24723 40.5304C2.68351 41.0943 2.37305 41.8432 2.37305 42.6396C2.37305 44.2846 3.71144 45.623 5.35644 45.623H33.8135ZM23.882 33.4195C24.5983 33.0058 24.8446 32.0866 24.4311 31.3702L17.4275 19.2395C17.2271 18.8925 16.9036 18.6443 16.5165 18.5406C16.3873 18.5061 16.2561 18.4889 16.1259 18.4889C15.8658 18.4889 15.6093 18.557 15.3782 18.6905C15.0312 18.8909 14.783 19.2144 14.6792 19.6014C14.5756 19.9884 14.6287 20.3928 14.8291 20.7398L21.8327 32.8704C22.2463 33.5867 23.1656 33.833 23.882 33.4195ZM45.024 38.8589C45.2637 37.7693 45.0416 36.6671 44.3986 35.7551L37.2557 25.6268C35.6792 26.6262 34.0727 27.5585 32.4388 28.4208L37.633 39.6613C38.2729 41.045 39.6729 41.9393 41.1995 41.9393C41.8815 41.9393 42.5578 41.7572 43.155 41.4127C44.1206 40.8551 44.7845 39.9482 45.024 38.8589ZM45.8859 20.715C46.2235 20.5141 46.4649 20.1951 46.5668 19.8146C46.6705 19.4274 46.6172 19.0232 46.4168 18.6765L39.4134 6.54512C38.9995 5.82901 38.0802 5.58281 37.3644 5.99654C37.0168 6.19702 36.7686 6.52033 36.6649 6.90725C36.5613 7.29427 36.6145 7.69882 36.8149 8.04627L38.983 11.8014C39.1731 12.1307 39.0603 12.5518 38.731 12.7419C38.4018 12.9322 37.9808 12.8192 37.7906 12.4899L35.9171 9.24496C29.695 11.7463 23.9796 15.0435 18.9087 19.051L25.336 30.1835C31.3413 27.7961 37.0537 24.4926 42.3321 20.3548L39.3978 15.2722C39.2077 14.943 39.3205 14.5219 39.6498 14.3318C39.979 14.1416 40.4002 14.2544 40.5903 14.5838L43.8188 20.176C44.0191 20.5234 44.3424 20.7716 44.7292 20.8752C45.116 20.9789 45.5202 20.9257 45.8672 20.7254C45.8734 20.7219 45.8797 20.7184 45.8859 20.715ZM33.6431 17.5468C33.7706 17.7676 34.002 17.8911 34.24 17.8911C34.3568 17.8911 34.4752 17.8614 34.5837 17.7988C34.913 17.6086 35.0258 17.1876 34.8357 16.8583C34.677 16.5836 34.7715 16.2313 35.0461 16.0727C35.1792 15.9959 35.3343 15.9755 35.4825 16.0152C35.6309 16.055 35.755 16.1502 35.8317 16.2832C36.0219 16.6126 36.443 16.7254 36.7722 16.5353C37.1015 16.3451 37.2144 15.9241 37.0243 15.5948C36.7636 15.1432 36.3426 14.8201 35.8389 14.6852C35.3353 14.5503 34.8092 14.6195 34.3577 14.8802C33.4255 15.4184 33.105 16.6147 33.6431 17.5468ZM23.8622 23.1942C23.9897 23.4151 24.2211 23.5386 24.459 23.5386C24.5758 23.5386 24.6942 23.5088 24.8027 23.4462C25.132 23.2561 25.2448 22.835 25.0547 22.5058C24.8961 22.2311 24.9905 21.8788 25.2652 21.7202C25.3982 21.6434 25.5532 21.6229 25.7016 21.6627C25.8499 21.7024 25.974 21.7976 26.0508 21.9306C26.2409 22.2599 26.662 22.3726 26.9912 22.1827C27.3205 21.9926 27.4334 21.5715 27.2433 21.2423C26.9826 20.7906 26.5616 20.4676 26.058 20.3326C25.5543 20.1977 25.0283 20.267 24.5767 20.5277C23.6445 21.0658 23.3241 22.2621 23.8622 23.1942ZM30.599 22.1288C30.3293 22.1288 30.0585 22.0846 29.7976 21.995C29.4379 21.8717 29.2464 21.4801 29.3696 21.1205C29.4929 20.7608 29.8846 20.5692 30.2442 20.6925C30.5429 20.7949 30.8703 20.7634 31.1428 20.6061C31.4152 20.4489 31.6062 20.1809 31.6668 19.8711C31.7399 19.498 32.1017 19.2548 32.4748 19.3278C32.8479 19.4008 33.0912 19.7625 33.0181 20.1357C32.881 20.8362 32.4483 21.4423 31.8312 21.7987C31.4525 22.0173 31.0271 22.1288 30.599 22.1288Z" fill="#E8BF96"/>
</svg>
