<svg width="47" height="47" viewBox="0 0 47 47" fill="none" xmlns="http://www.w3.org/2000/svg">
<path d="M26.6316 9.39996C26.6316 4.21777 22.4141 0 17.2322 0C12.0503 0 7.83282 4.21777 7.83282 9.39996C7.83282 9.66257 7.842 9.92807 7.85882 10.197C7.90479 11.2599 9.50723 11.1613 9.42233 10.1005C9.40752 9.86192 9.39787 9.62784 9.39787 9.39987C9.39787 5.06442 12.8955 1.56651 17.2307 1.56651C21.5659 1.56651 25.0635 5.06436 25.0635 9.39987C25.0635 10.3696 24.931 11.4262 24.6811 12.5225C24.5499 12.5373 24.4077 12.5601 24.2787 12.5944V11.7499C24.2803 11.3172 23.9312 10.965 23.4985 10.9635H21.9319C20.1605 10.9635 19.5377 9.15358 19.5377 9.15358C19.4278 8.81935 19.1089 8.60016 18.7575 8.61653C18.4338 8.63133 18.1535 8.8457 18.0523 9.15358C18.0523 9.15358 17.4269 10.9635 15.6642 10.9635H10.9629C10.5302 10.9651 10.181 11.3172 10.1827 11.7499V12.5883C8.6164 12.2072 7.04954 13.3071 7.04954 14.871C7.04954 17.1618 8.66177 18.595 10.5766 18.7784C10.9734 19.9172 11.6545 20.9177 12.5325 21.7037V25.8514C12.5324 25.9355 12.5459 26.0193 12.5723 26.0992C13.3019 27.8995 15.0174 28.9847 17.2338 28.9847C19.4502 28.9847 21.174 27.8925 21.8937 26.0992C21.9206 26.0193 21.9347 25.9355 21.935 25.8514V21.7068C22.8131 20.9219 23.4962 19.9215 23.8916 18.783C25.7016 18.5992 27.4149 17.215 27.4149 14.8702C27.3853 13.9659 26.8822 13.2629 26.2124 12.8698C26.4818 11.6863 26.6316 10.5104 26.6316 9.39987L26.6316 9.39996ZM32.8963 3.91817V4.69845H32.1161C30.8278 4.69845 29.7632 5.76465 29.7632 7.053V12.5333C29.7632 17.0296 33.2049 20.715 37.5975 21.1102V32.1197C37.5975 33.4351 36.5661 34.4667 35.2508 34.4667H34.4246C34.024 29.2066 29.645 25.0666 24.2818 25.0666C23.223 25.0518 23.223 26.6478 24.2818 26.6333C28.804 26.6333 32.4665 30.0524 32.8581 34.4667H24.9518C24.6012 33.1228 23.3849 32.1197 21.935 32.1197C20.2139 32.1197 18.8003 33.5257 18.8003 35.2469C18.8003 36.9682 20.2139 38.3818 21.935 38.3818C23.3836 38.3818 24.5984 37.3766 24.9503 36.0333H35.2508C37.4069 36.0333 39.1656 34.2759 39.1656 32.1197V21.1102C43.5559 20.7121 47 17.0274 47 12.5333V7.053C47 5.76465 45.9338 4.69845 44.6456 4.69845H43.8653V3.91817C43.8653 2.8522 42.2988 2.8575 42.2988 3.91817V7.053C42.3213 8.07459 43.8427 8.07459 43.8653 7.053V6.26667H44.6456C45.093 6.26667 45.4334 6.60553 45.4334 7.053V12.5333C45.4334 16.4526 42.2968 19.5833 38.3778 19.5833C34.4588 19.5833 31.3298 16.4526 31.3298 12.5333V7.053C31.3298 6.60553 31.6686 6.26667 32.1161 6.26667H32.8963V7.053C32.8963 8.09846 34.4644 8.09846 34.4644 7.053V3.91817C34.4644 2.88083 32.8963 2.84275 32.8963 3.91817ZM18.8003 10.9728C19.2982 11.6428 20.3028 12.5303 21.9334 12.5303H22.7137V16.4515C22.7136 19.5028 20.2833 21.9333 17.2322 21.9333C14.1811 21.9333 11.7508 19.5028 11.7508 16.4515V12.5303H15.6656C17.2988 12.5303 18.2379 11.6783 18.8003 10.9728ZM24.2481 17.1186C24.3104 16.2112 24.2802 15.2905 24.2802 14.3478C24.8628 13.7464 25.8453 14.2628 25.8422 14.9016C25.8366 16.0809 25.1239 16.8613 24.2481 17.1186H24.2481ZM10.2179 17.1186C9.34204 16.8613 8.62378 16.0766 8.62378 14.9016C8.62378 14.1285 9.71688 13.8242 10.1842 14.3448C10.1787 15.2492 10.1706 16.2595 10.2179 17.1186H10.2179ZM14.0991 22.7686C15.0425 23.2363 16.1063 23.5 17.2322 23.5C18.3591 23.5 19.4221 23.2358 20.3669 22.7686V25.6602C20.3669 25.6602 19.7158 27.4182 17.2337 27.4182C14.7517 27.4182 14.0991 25.6602 14.0991 25.6602V22.7686ZM10.1827 25.0666C4.55501 25.0666 0 29.622 0 35.25V46.2167C4.67749e-05 46.6493 0.350707 47 0.783282 47H6.29074H28.2226H33.6811C34.1137 47 34.4644 46.6493 34.4644 46.2167V38.3833C34.4792 37.324 32.8829 37.324 32.8979 38.3833V40.7348H28.983V38.3818C28.983 37.2729 27.4164 37.3615 27.4164 38.3818V45.4333H7.05107V38.3818C7.05107 37.3249 5.4845 37.3225 5.4845 38.3818V40.7348H1.56656V35.25C1.56656 30.4629 5.39581 26.6333 10.1827 26.6333C11.2414 26.6481 11.2414 25.0521 10.1827 25.0666ZM21.935 33.6802C22.8094 33.6802 23.5015 34.3724 23.5015 35.2469C23.5015 36.1214 22.8094 36.8151 21.935 36.8151C21.0605 36.8151 20.3669 36.1214 20.3669 35.2469C20.3669 34.3724 21.0605 33.6802 21.935 33.6802ZM1.56656 42.303H5.4845V45.4333H1.56656V42.303ZM28.983 42.303H32.8979V45.4333H28.983V42.303Z" fill="#E8BF96"/>
</svg>
