<svg width="48" height="47" viewBox="0 0 48 47" fill="none" xmlns="http://www.w3.org/2000/svg">
<path d="M28.9814 20.6889C28.7168 18.6745 27.3852 17.0219 25.5743 16.2964V8.92993L35.2337 8.18681L34.3341 13.1339H34.046C32.2081 13.1339 30.9729 15.0347 31.7344 16.6973C32.8577 19.1484 35.3245 20.7322 38.0191 20.7322C40.7137 20.7322 43.1806 19.1484 44.3038 16.6972C45.0663 15.033 43.8282 13.1339 41.9923 13.1339H41.7042L40.7278 7.76407C41.5182 7.70302 41.4998 7.70532 41.5325 7.70128L41.5326 7.7022C42.6616 7.61389 43.5462 6.65852 43.5462 5.52727C43.5462 4.39474 42.6614 3.43938 41.5318 3.35235L34.3578 2.80027C33.9792 2.76997 33.6478 3.05464 33.6186 3.43387C33.5894 3.813 33.8731 4.14394 34.2522 4.17313L41.426 4.72522C41.8428 4.75744 42.1693 5.10968 42.1693 5.52727C42.1693 5.9546 41.8257 6.30592 41.4208 6.3297C41.0705 6.35715 25.6085 7.54632 25.5743 7.54889V3.50584L31.0357 3.92619C31.4123 3.95621 31.7456 3.67163 31.7749 3.29259C31.8041 2.91345 31.5204 2.58252 31.1413 2.55332L25.5744 2.1248V2.07101C25.5744 0.929107 24.6454 0 23.5035 0C22.3617 0 21.4326 0.929015 21.4326 2.07101V2.12471L5.47499 3.35235C4.34538 3.43938 3.46068 4.39474 3.46068 5.52727C3.46068 6.65852 4.3452 7.61389 5.47508 7.7022C5.75771 7.72395 6.02474 7.74443 6.27891 7.76398L5.30251 13.1339H5.01446C3.17694 13.1339 1.94122 15.0345 2.70292 16.6973C3.8261 19.1484 6.29296 20.7322 8.98764 20.7322C11.6821 20.7322 14.1491 19.1484 15.2724 16.6972C16.0348 15.0329 14.7968 13.1339 12.9607 13.1339H12.6727L11.7729 8.18635L21.4324 8.92984V16.2963C19.6209 17.0221 18.2892 18.6756 18.0251 20.691C9.58375 22.71 3.20219 29.1426 0.929292 36.9974C0.823638 37.3626 1.03403 37.7445 1.39918 37.8501C1.76369 37.956 2.1461 37.7457 2.25185 37.3802C2.99317 34.8182 4.18079 32.4389 5.78369 30.3002L8.63727 31.252C9.84371 31.6539 10.5654 32.8976 10.3161 34.145C9.91888 36.1311 11.0821 38.0678 13.0219 38.6502L16.6505 39.7387C18.4792 40.2868 19.1724 42.5267 17.9357 44.0101C17.54 44.4851 17.2625 45.0343 17.1165 45.623H1.47739C1.31657 43.8999 1.35677 42.1581 1.59773 40.4364C1.65042 40.0597 1.38789 39.7117 1.01136 39.659C0.633993 39.6068 0.286647 39.8688 0.234049 40.2455C-0.0517032 42.2874 -0.0714387 44.3561 0.175302 46.3942C0.217159 46.74 0.510531 47 0.858703 47H46.1478C46.496 47 46.7893 46.7399 46.8312 46.3942C48.273 34.4868 40.5465 23.4501 28.9814 20.6889ZM43.052 16.1236C42.1525 18.0868 40.177 19.3553 38.0191 19.3553C35.8613 19.3553 33.8858 18.0868 32.9862 16.1237C32.6354 15.3579 33.2265 14.511 34.046 14.511C34.3097 14.511 42.0693 14.5111 41.9923 14.511C42.8141 14.5109 43.4019 15.3604 43.052 16.1236ZM40.3048 13.1339H35.7335L36.653 8.07757L39.3477 7.87028L40.3048 13.1339ZM45.4167 40.4179L41.1697 40.7721C39.3773 40.925 37.7551 39.7056 37.4011 37.9348C37.0019 35.9426 35.3877 34.3795 33.384 34.0453L31.6097 33.7493C30.0203 33.4848 28.8084 32.1788 28.6625 30.5733L27.8697 21.855C37.2243 23.7206 44.1371 31.2294 45.4167 40.4179ZM4.83758 5.52727C4.83758 5.10968 5.16408 4.75735 5.58073 4.72522L21.4326 3.50575V7.54889C20.1823 7.45269 5.61158 6.33162 5.58156 6.32933C5.16436 6.29674 4.83758 5.94441 4.83758 5.52727ZM14.0207 16.1236C13.121 18.0868 11.1455 19.3553 8.98773 19.3553C6.82986 19.3553 4.85437 18.0868 3.9548 16.1237C3.60433 15.359 4.1942 14.511 5.01455 14.511H12.9608C13.7821 14.5109 14.3706 15.3598 14.0207 16.1236ZM6.70199 13.1339L7.65912 7.8701C9.10009 7.98081 9.90759 8.04296 10.3536 8.0772L11.2732 13.1339H6.70199ZM22.8094 2.07101C22.8094 1.68838 23.1208 1.377 23.5034 1.377C23.8861 1.377 24.1974 1.68838 24.1974 2.07101V15.9433C23.97 15.9151 23.7387 15.899 23.5034 15.899C23.2681 15.899 23.0368 15.9151 22.8094 15.9433C22.8094 12.1394 22.8094 8.35646 22.8094 2.07101ZM22.2748 17.459C22.2992 17.4534 22.3231 17.4464 22.3465 17.4383C22.7137 17.3331 23.1016 17.2759 23.5035 17.2759C23.9053 17.2759 24.2933 17.333 24.6603 17.4382C24.6838 17.4464 24.7077 17.4534 24.7322 17.459C26.1035 17.8789 27.1678 18.9855 27.5237 20.3907C24.8515 19.9312 22.1375 19.9309 19.4833 20.39C19.8395 18.9852 20.9037 17.8788 22.2748 17.459ZM45.5296 45.6231H18.5602C18.6638 45.3605 18.8087 45.1137 18.9936 44.8916C20.8503 42.6646 19.8311 39.2544 17.0461 38.4197L13.4177 37.3313C12.1621 36.9544 11.4092 35.7006 11.6664 34.4149C12.0515 32.4879 10.9364 30.5665 9.07273 29.9457L6.70226 29.155C11.6211 23.4044 18.9927 20.6091 26.4658 21.6204L27.2913 30.6979C27.4938 32.9268 29.1767 34.7401 31.3835 35.1074L33.1575 35.4033C34.6007 35.6441 35.7635 36.7701 36.0509 38.2048C36.5437 40.6702 38.8013 42.3569 41.2854 42.1441L45.5634 41.7872C45.6597 43.0448 45.6518 44.3266 45.5296 45.6231Z" fill="#E8BF96"/>
</svg>
