<svg width="48" height="47" viewBox="0 0 48 47" fill="none" xmlns="http://www.w3.org/2000/svg">
<path d="M46.3135 45.623H30.6133V39.1021C31.0072 39.2123 31.4217 39.2725 31.8503 39.2725H42.4057C44.94 39.2725 47.0019 37.2107 47.0019 34.6763C47.0019 34.296 46.6936 33.9878 46.3134 33.9878H44.4139L39.0057 23.9679C39.5525 23.4624 39.8956 22.7399 39.8956 21.9386C39.8956 20.6512 39.0105 19.5663 37.8165 19.2597V8.17433H39.5259V8.55896C39.5259 9.44911 40.9029 9.44911 40.9029 8.55896V8.17433H44.2993C46.6694 8.17433 46.6729 4.48162 44.2993 4.48162H40.9029V3.78937C40.9029 2.89922 39.5259 2.89922 39.5259 3.78937V4.48171H37.8165V3.78937C37.8165 2.89922 36.4395 2.89922 36.4395 3.78937V4.48171H30.7518V3.03692C30.7518 1.68291 29.6502 0.58135 28.2962 0.58135C27.735 0.58135 27.2174 0.771002 26.8034 1.08908C26.3623 0.432822 25.6126 0 24.7637 0C23.9148 0 23.1651 0.432822 22.724 1.08917C22.31 0.771094 21.7924 0.581441 21.2312 0.581441C20.3081 0.581441 19.5025 1.09367 19.0832 1.84861C18.6888 1.57826 18.212 1.41973 17.6986 1.41973C16.3446 1.41973 15.2431 2.52129 15.2431 3.8753V4.48162H10.5644V3.78937C10.5644 2.89922 9.18742 2.89922 9.18742 3.78937V4.48171H7.47798V3.78937C7.47798 2.89922 6.10103 2.89922 6.10103 3.78937V4.48171H2.70464C0.334533 4.48171 0.331045 8.17442 2.70464 8.17442H6.10103V8.55905C6.10103 9.4492 7.47798 9.4492 7.47798 8.55905V8.17442H9.18742V19.2597C7.99333 19.5663 7.10832 20.6511 7.10832 21.9386C7.10832 22.7399 7.45145 23.4624 7.99829 23.968L2.58989 33.9878H0.69043C0.310207 33.9878 0.00195313 34.296 0.00195313 34.6763C0.00195313 37.2106 2.0638 39.2724 4.59813 39.2724H15.1535C15.5821 39.2724 15.9966 39.2122 16.3905 39.102V45.623H0.69043C0.310207 45.623 0.00195312 45.9313 0.00195312 46.3115C0.00195312 46.6917 0.310207 47 0.69043 47H46.3135C46.6937 47 47.002 46.6917 47.002 46.3115C47.002 45.9313 46.6937 45.623 46.3135 45.623ZM42.8492 33.9878H41.4649C41.0846 33.9878 40.7764 34.296 40.7764 34.6763C40.7764 35.0565 41.0846 35.3647 41.4649 35.3647H44.0016C44.0023 35.3647 44.003 35.3649 44.0039 35.3649C44.0047 35.3649 44.0055 35.3647 44.0063 35.3647H45.5508C45.2348 36.8103 43.9446 37.8955 42.4057 37.8955H31.8503C30.3114 37.8955 29.0212 36.8102 28.7052 35.3647H30.2492C30.2502 35.3647 30.2511 35.3648 30.2521 35.3648C30.2531 35.3648 30.2539 35.3647 30.2548 35.3647H37.7999V33.9877H31.4067L36.4616 24.6225C36.9058 24.7313 37.35 24.7313 37.7943 24.6225L42.8492 33.9878ZM17.7676 24.7122H29.2364V27.8875H17.7676V24.7122ZM38.5187 21.9385C38.5187 22.7042 37.8949 23.3271 37.1281 23.3271C36.3613 23.3271 35.7374 22.7042 35.7374 21.9385C35.7374 21.1729 36.3612 20.5499 37.1281 20.5499C37.895 20.5499 38.5187 21.1729 38.5187 21.9385ZM36.4396 19.2596C35.2455 19.5662 34.3604 20.651 34.3604 21.9385C34.3604 22.7398 34.7036 23.4623 35.2504 23.9679L30.6134 32.5589V24.0237C30.6134 23.6435 30.3051 23.3352 29.9249 23.3352H29.3211C29.2619 21.9716 29.7002 20.6487 30.6762 19.6739C32.8578 17.4949 34.6886 15.2975 34.6886 12.0222V9.24789C34.6886 8.86308 34.5993 8.49883 34.4406 8.17442H36.4397V19.2596H36.4396ZM44.2993 5.85866C44.906 5.85866 44.906 6.79747 44.2993 6.79747H40.9029V5.85866H44.2993ZM39.5259 5.85866V6.79747H37.8165V5.85866H39.5259ZM36.4396 5.85866V6.79747L30.7519 6.79453V5.85866H36.4396ZM28.2962 1.9583C28.891 1.9583 29.3748 2.44216 29.3748 3.03692V6.79444H27.2193V3.00249C27.2377 2.42371 27.7131 1.9583 28.2962 1.9583ZM24.7637 1.37695C25.3585 1.37695 25.8423 1.86008 25.8423 2.45382L25.8406 6.82244C25.2698 6.94379 24.8403 7.45106 24.8403 8.0571C24.8403 8.71382 25.016 9.32996 25.3216 9.86275C24.6152 10.2892 23.6851 9.76609 23.6851 8.94147V2.45382C23.6851 1.86008 24.1689 1.37695 24.7637 1.37695ZM21.2312 1.9583C21.8144 1.9583 22.2897 2.42371 22.308 3.0024V8.48589C22.2896 9.06457 21.8143 9.53008 21.2312 9.53008C20.6364 9.53008 20.1526 9.04622 20.1526 8.45146V3.03692C20.1526 2.44216 20.6364 1.9583 21.2312 1.9583ZM16.62 3.8753C16.62 3.28054 17.1039 2.79668 17.6986 2.79668C18.2818 2.79668 18.7572 3.26209 18.7755 3.84087V7.64769C18.7571 8.22638 18.2817 8.69188 17.6986 8.69188C17.1039 8.69188 16.62 8.20802 16.62 7.61327V3.8753ZM15.2431 5.85866V6.79747H10.5644V5.85866H15.2431ZM2.70464 6.79737C2.09786 6.79737 2.09786 5.85857 2.70464 5.85857H6.10103V6.79737H2.70464ZM7.47798 6.79737V5.85866H9.18742V6.79747H7.47798V6.79737ZM15.2431 8.17433V11.3904C15.2431 11.7707 15.5513 12.0789 15.9316 12.0789C16.3118 12.0789 16.62 11.7707 16.62 11.3904V9.8185C16.9458 9.9785 17.3119 10.0687 17.6986 10.0687C18.212 10.0687 18.6888 9.91021 19.0832 9.63986C19.5025 10.3948 20.308 10.907 21.2312 10.907C21.8117 10.907 22.3454 10.7042 22.7662 10.3661C23.2121 10.9885 23.9409 11.3952 24.7637 11.3952C25.2955 11.3952 25.8064 11.2232 26.2257 10.9125C26.848 11.4057 27.6339 11.7013 28.4881 11.7013H29.5897V11.7164C26.5855 12.0587 24.2442 14.6137 24.2442 17.7047C24.2442 18.0849 24.5525 18.3932 24.9327 18.3932C25.3129 18.3932 25.6212 18.0849 25.6212 17.7047C25.6212 15.1404 27.7103 13.0543 30.2782 13.0543C30.6584 13.0543 30.9667 12.7461 30.9667 12.3659V11.0128C30.9667 10.6326 30.6584 10.3243 30.2782 10.3243H28.4881C27.2743 10.3243 26.2799 9.3687 26.2201 8.17139C28.2436 8.17139 30.267 8.17433 32.2905 8.17433C32.8584 8.20453 33.3116 8.6737 33.3116 9.2478V12.0221C33.3116 14.9227 31.6172 16.7876 29.703 18.6996C28.454 19.9469 27.9276 21.6008 27.9441 23.3352H19.0056C19.0562 21.8004 18.5434 20.3765 17.7007 19.1078C16.9936 18.0077 16.6199 16.7354 16.6199 15.428C16.6199 15.0478 16.3117 14.7395 15.9315 14.7395C15.5512 14.7395 15.243 15.0478 15.243 15.428C15.243 17.0018 15.6933 18.5333 16.5454 19.857C17.2302 20.9168 17.681 22.0569 17.6286 23.3352H17.079C16.6988 23.3352 16.3905 23.6435 16.3905 24.0237V32.5589L11.7535 23.9679C12.3003 23.4624 12.6435 22.7398 12.6435 21.9385C12.6435 20.6511 11.7584 19.5662 10.5643 19.2596V8.17433H15.2431ZM9.8759 20.5499C10.6428 20.5499 11.2666 21.1729 11.2666 21.9385C11.2666 22.7042 10.6428 23.3271 9.8759 23.3271C9.10903 23.3271 8.48527 22.7042 8.48527 21.9385C8.48527 21.1729 9.10903 20.5499 9.8759 20.5499ZM9.20955 24.6226C9.65375 24.7313 10.098 24.7313 10.5422 24.6226L15.5971 33.9879H4.15466L9.20955 24.6226ZM4.59813 37.8956C3.05925 37.8956 1.76904 36.8103 1.45299 35.3648H2.99774C2.99848 35.3648 2.99921 35.3649 2.99995 35.3649C3.00059 35.3649 3.00132 35.3648 3.00197 35.3648H16.7496C16.7503 35.3648 16.751 35.3649 16.7517 35.3649C16.7524 35.3649 16.7531 35.3648 16.7539 35.3648H18.2986C17.9826 36.8104 16.6924 37.8956 15.1535 37.8956H4.59813ZM17.7676 45.623V38.4537C18.9642 37.6231 19.7498 36.24 19.7498 34.6763C19.7498 34.296 19.4415 33.9878 19.0613 33.9878H17.7676V29.2644H29.2364V33.9878H27.9427C27.5625 33.9878 27.2542 34.296 27.2542 34.6763C27.2542 36.24 28.0398 37.6231 29.2364 38.4537V45.623H17.7676Z" fill="#E8BF96"/>
</svg>
