<svg width="31" height="11" viewBox="0 0 31 11" fill="none" xmlns="http://www.w3.org/2000/svg">
<path fill-rule="evenodd" clip-rule="evenodd" d="M4.81012 3.82741C5.95582 2.75251 6.63099 1.38192 6.82007 0.155363L5.28728 0C5.13309 1.00025 4.5725 2.13481 3.64142 3.00835C2.72571 3.86748 1.84025 4.44482 0.260254 4.4499C0.638855 4.44992 0.625076 4.43813 0.260254 4.4499V5.08792V5.71427C1.78976 5.72114 2.67101 6.38676 3.60509 7.40918C4.55079 8.44432 5.12659 9.79618 5.28566 11L6.82158 10.8666C6.63737 9.47245 5.97741 7.90163 4.84632 6.66357C4.53296 6.32057 4.17947 5.99949 3.78646 5.71427L30.3228 5.71421V4.46164L4.02544 4.46169C4.30839 4.26558 4.57009 4.05261 4.81012 3.82741Z" fill="#1C1D20"/>
</svg>
