<svg width="31" height="11" viewBox="0 0 31 11" fill="none" xmlns="http://www.w3.org/2000/svg">
<path fill-rule="evenodd" clip-rule="evenodd" d="M25.9208 3.82741C24.7751 2.75251 24.1 1.38192 23.9109 0.155363L25.4437 0C25.5979 1.00025 26.1585 2.13481 27.0895 3.00835C28.0053 3.86748 28.8907 4.44482 30.4707 4.4499C30.0921 4.44992 30.1059 4.43813 30.4707 4.4499V5.08792V5.71427C28.9412 5.72114 28.0599 6.38676 27.1259 7.40918C26.1802 8.44432 25.6044 9.79618 25.4453 11L23.9094 10.8666C24.0936 9.47245 24.7535 7.90163 25.8846 6.66357C26.198 6.32057 26.5515 5.99949 26.9445 5.71427L0.408203 5.71421L0.408203 4.46164L26.7055 4.46169C26.4226 4.26558 26.1609 4.05261 25.9208 3.82741Z" fill="#1C1D20"/>
</svg>
