<svg width="55" height="36" viewBox="0 0 55 36" fill="none" xmlns="http://www.w3.org/2000/svg">
<path fill-rule="evenodd" clip-rule="evenodd" d="M17.8708 9.19483C20.7366 5.8608 21.3177 2.32986 21.005 0.141422L21.995 0C22.349 2.47825 21.68 6.29735 18.6292 9.84669C16.1545 12.7257 12.1332 15.4054 5.8667 17.0708L55 17.0707V18.0707L5.8667 18.0708C12.1332 19.7362 16.1545 22.4159 18.6292 25.2949C21.68 28.8443 22.349 32.6634 21.995 35.1416L21.005 35.0002C21.3177 32.8117 20.7366 29.2808 17.8708 25.9468C15.0134 22.6225 9.85331 19.4607 0.961249 18.0708H0V17.0708H0.961249C9.85331 15.6809 15.0134 12.5191 17.8708 9.19483Z" fill="white"/>
</svg>
