<svg width="55" height="36" viewBox="0 0 55 36" fill="none" xmlns="http://www.w3.org/2000/svg">
<path fill-rule="evenodd" clip-rule="evenodd" d="M37.1292 9.19483C34.2634 5.8608 33.6823 2.32986 33.995 0.141422L33.005 0C32.651 2.47825 33.32 6.29735 36.3708 9.84669C38.8455 12.7257 42.8668 15.4054 49.1333 17.0708L0 17.0707V18.0707L49.1333 18.0708C42.8668 19.7362 38.8455 22.4159 36.3708 25.2949C33.32 28.8443 32.651 32.6634 33.005 35.1416L33.995 35.0002C33.6823 32.8117 34.2634 29.2808 37.1292 25.9468C39.9866 22.6225 45.1467 19.4607 54.0388 18.0708H55V17.0708H54.0388C45.1467 15.6809 39.9866 12.5191 37.1292 9.19483Z" fill="white"/>
</svg>
