<svg width="35" height="25" viewBox="0 0 35 25" fill="none" xmlns="http://www.w3.org/2000/svg">
<path d="M18.1663 25C19.3821 22.5427 20.7381 19.9519 22.2345 17.2276C23.7308 14.5032 24.8297 12.4199 25.5311 10.9776L31.1423 0C31.9372 0.0534188 32.5685 0.0801282 33.0361 0.0801282C33.5972 0.0801282 34.2518 0.0534188 35 0C31.8203 9.9359 29.3888 18.2692 27.7054 25C26.1156 24.8932 24.5257 24.8397 22.9359 24.8397C21.346 24.8397 19.7562 24.8932 18.1663 25ZM0 25C1.21576 22.5427 2.57181 19.9519 4.06814 17.2276C5.56446 14.5032 6.66333 12.4199 7.36473 10.9776L12.976 0C13.7709 0.0534188 14.4255 0.0801282 14.9399 0.0801282C15.4542 0.0801282 16.0855 0.0534188 16.8337 0C13.7007 9.9359 11.2692 18.2692 9.53908 25C7.94923 24.8932 6.35939 24.8397 4.76954 24.8397C3.17969 24.8397 1.58985 24.8932 0 25Z" fill="white"/>
</svg>
