<svg width="22" height="21" viewBox="0 0 22 21" fill="none" xmlns="http://www.w3.org/2000/svg">
<path fill-rule="evenodd" clip-rule="evenodd" d="M20.9944 0.0776896C21.2236 -0.0419191 21.5004 -0.0218321 21.7112 0.126994C21.9221 0.276733 22.0302 0.530559 21.9926 0.786211L19.4718 17.6775C19.4416 17.8775 19.3233 18.0555 19.1491 18.1614C19.0401 18.2272 18.9163 18.261 18.7916 18.261C18.7165 18.261 18.6413 18.2482 18.5698 18.2244L8.96043 14.953L18.4094 3.61391L6.19852 14.0135L0.464789 12.0614C0.205373 11.9728 0.0229574 11.7391 0.0018741 11.4652C-0.0182925 11.1922 0.125624 10.9329 0.369456 10.806L20.9944 0.0776896ZM8.02078 20.3152V16.0805L11.7488 17.3497L9.26194 20.7206C9.12994 20.8996 8.92278 21 8.70828 21C8.63678 21 8.56436 20.989 8.49378 20.9662C8.21144 20.8731 8.02078 20.611 8.02078 20.3152Z" fill="#F9F9F9"/>
</svg>
