<svg width="75" height="75" viewBox="0 0 75 75" fill="none" xmlns="http://www.w3.org/2000/svg">
<rect width="75" height="75" rx="18" fill="#FFDAA2"/>
<path fill-rule="evenodd" clip-rule="evenodd" d="M50.0195 20H54.0039C54.554 20 55 20.446 55 20.9961V24.9805C55 25.5306 54.554 25.9766 54.0039 25.9766H50.0195C49.4694 25.9766 49.0234 25.5306 49.0234 24.9805V23.9844H44.8812C48.4678 26.2559 50.6588 30.0839 50.9221 34.1739C52.0955 34.5774 52.9414 35.6914 52.9414 37C52.9414 38.6477 51.6009 39.9883 49.9531 39.9883C48.3054 39.9883 46.9648 38.6477 46.9648 37C46.9648 35.713 47.7826 34.6135 48.9258 34.1937C48.5721 29.5023 45.194 25.4617 40.6764 24.3153C40.1868 25.2988 39.1713 25.9766 38 25.9766C36.8287 25.9766 35.8132 25.2988 35.3236 24.3152C30.8061 25.4616 27.4279 29.5023 27.0742 34.1937C28.2174 34.6135 29.0352 35.713 29.0352 37C29.0352 38.6477 27.6946 39.9883 26.0469 39.9883C24.3991 39.9883 23.0586 38.6477 23.0586 37C23.0586 35.6914 23.9045 34.5774 25.0779 34.1739C25.3406 30.0921 27.5251 26.2471 31.1188 23.9711H26.9766V24.9805C26.9766 25.5306 26.5306 25.9766 25.9805 25.9766H21.9961C21.446 25.9766 21 25.5306 21 24.9805V20.9961C21 20.446 21.446 20 21.9961 20H25.9805C26.5306 20 26.9766 20.446 26.9766 20.9961V21.9922H35.183C35.5942 20.8329 36.7014 20 38 20C39.2986 20 40.4058 20.8329 40.817 21.9922H49.0234V20.9961C49.0234 20.446 49.4694 20 50.0195 20ZM22.9922 23.9844H24.9844V21.9922H22.9922V23.9844ZM25.0508 37C25.0508 37.5492 25.4976 37.9961 26.0469 37.9961C26.5961 37.9961 27.043 37.5492 27.043 37C27.043 36.4507 26.5961 36.0039 26.0469 36.0039C25.4976 36.0039 25.0508 36.4507 25.0508 37ZM37.0039 22.9883C37.0039 23.5375 37.4508 23.9844 38 23.9844C38.5492 23.9844 38.9961 23.5375 38.9961 22.9883C38.9961 22.439 38.5492 21.9922 38 21.9922C37.4508 21.9922 37.0039 22.439 37.0039 22.9883ZM50.9492 37C50.9492 36.4507 50.5024 36.0039 49.9531 36.0039C49.4039 36.0039 48.957 36.4507 48.957 37C48.957 37.5492 49.4039 37.9961 49.9531 37.9961C50.5024 37.9961 50.9492 37.5492 50.9492 37ZM51.0156 23.9844H53.0078V21.9922H51.0156V23.9844ZM38.8287 28.4788L46.7975 40.4318C47.0609 40.8269 47.0088 41.353 46.673 41.6888C44.6856 43.6759 43.4207 46.2737 43.0762 49.0532C43.2309 49.1783 43.3802 49.3121 43.5219 49.457C44.4574 50.4141 44.9726 51.6738 44.9726 53.0039C44.9726 53.554 44.5267 54 43.9765 54H32.0234C31.4733 54 31.0273 53.554 31.0273 53.0039C31.0273 51.6738 31.5426 50.4141 32.4782 49.4571C32.6198 49.3122 32.7691 49.1783 32.9238 49.0533C32.5792 46.2739 31.3143 43.6761 29.3269 41.6888C28.9912 41.353 28.9391 40.8269 29.2025 40.4319L37.1712 28.4788C37.1714 28.4785 37.1715 28.4783 37.1717 28.4781C37.1718 28.4779 37.172 28.4777 37.1721 28.4775C37.1737 28.4751 37.1755 28.4727 37.1772 28.4703C37.1785 28.4686 37.1798 28.4668 37.181 28.465C37.5569 27.921 38.3561 27.8858 38.7759 28.4074C38.7832 28.4165 38.7904 28.4257 38.7974 28.4351C38.8048 28.4449 38.812 28.4549 38.819 28.465C38.8219 28.4692 38.825 28.4732 38.8279 28.4775L38.8283 28.4781L38.8287 28.4788ZM38.9961 40.9844C38.9961 40.4351 38.5492 39.9883 38 39.9883C37.4507 39.9883 37.0039 40.4351 37.0039 40.9844C37.0039 41.5336 37.4507 41.9805 38 41.9805C38.5492 41.9805 38.9961 41.5336 38.9961 40.9844ZM36.0078 49.9492C34.7273 49.9492 33.6038 50.8236 33.1894 52.0078H42.8106C42.3962 50.8236 41.2727 49.9492 39.9922 49.9492H36.0078ZM39.9922 47.957C40.4058 47.957 40.812 48.0086 41.2038 48.1086C41.6699 45.4238 42.8806 42.9141 44.7001 40.8771L38.9961 32.3212V38.1675C40.1555 38.5787 40.9883 39.6859 40.9883 40.9844C40.9883 42.6322 39.6477 43.9727 38 43.9727C36.3523 43.9727 35.0117 42.6322 35.0117 40.9844C35.0117 39.6859 35.8445 38.5787 37.0039 38.1675V32.3212L31.2999 40.8771C33.1194 42.9144 34.3301 45.424 34.7962 48.1087C35.188 48.0086 35.5942 47.957 36.0078 47.957H39.9922Z" fill="#16254C"/>
</svg>
